<mxfile host="65bd71144e">
    <diagram id="A3RRYCLE6_zSqLesJ3TD" name="Page-1">
        <mxGraphModel dx="1216" dy="862" grid="1" gridSize="10" guides="1" tooltips="1" connect="1" arrows="1" fold="1" page="1" pageScale="1" pageWidth="850" pageHeight="1100" math="0" shadow="0">
            <root>
                <mxCell id="0"/>
                <mxCell id="1" parent="0"/>
                <mxCell id="2" value="&lt;font color=&quot;#9933ff&quot;&gt;Bands.js&lt;/font&gt;" style="whiteSpace=wrap;html=1;aspect=fixed;fillColor=#CFACFA;strokeColor=#330066;" parent="1" vertex="1">
                    <mxGeometry x="388" y="340" width="80" height="80" as="geometry"/>
                </mxCell>
                <mxCell id="3" value="&lt;font style=&quot;font-size: 11px;&quot; color=&quot;#9933ff&quot;&gt;Bookings.js&lt;/font&gt;" style="whiteSpace=wrap;html=1;aspect=fixed;fillColor=#CFACFA;strokeColor=#330066;" parent="1" vertex="1">
                    <mxGeometry x="388" y="457" width="80" height="80" as="geometry"/>
                </mxCell>
                <mxCell id="4" value="&lt;font color=&quot;#9933ff&quot;&gt;Bands.js&lt;/font&gt;" style="whiteSpace=wrap;html=1;aspect=fixed;fillColor=#CFACFA;strokeColor=#330066;" parent="1" vertex="1">
                    <mxGeometry x="388" y="580" width="80" height="80" as="geometry"/>
                </mxCell>
                <mxCell id="5" value="&lt;font color=&quot;#9933ff&quot;&gt;main.js&lt;/font&gt;" style="whiteSpace=wrap;html=1;aspect=fixed;fillColor=#CFACFA;strokeColor=#330066;" parent="1" vertex="1">
                    <mxGeometry x="258" y="457" width="80" height="80" as="geometry"/>
                </mxCell>
                <mxCell id="6" value="&lt;font color=&quot;#9933ff&quot;&gt;database.js&lt;/font&gt;" style="whiteSpace=wrap;html=1;aspect=fixed;fillColor=#CFACFA;strokeColor=#330066;" parent="1" vertex="1">
                    <mxGeometry x="518" y="457" width="80" height="80" as="geometry"/>
                </mxCell>
                <mxCell id="7" value="" style="endArrow=classic;html=1;fontSize=11;fontColor=#9933FF;exitX=1;exitY=0.25;exitDx=0;exitDy=0;entryX=0;entryY=0.5;entryDx=0;entryDy=0;" parent="1" source="5" target="2" edge="1">
                    <mxGeometry width="50" height="50" relative="1" as="geometry">
                        <mxPoint x="378" y="596" as="sourcePoint"/>
                        <mxPoint x="368" y="396" as="targetPoint"/>
                        <Array as="points">
                            <mxPoint x="358" y="476"/>
                            <mxPoint x="358" y="380"/>
                        </Array>
                    </mxGeometry>
                </mxCell>
                <mxCell id="8" value="" style="endArrow=classic;html=1;fontSize=11;fontColor=#9933FF;exitX=1;exitY=0.5;exitDx=0;exitDy=0;entryX=0;entryY=0.5;entryDx=0;entryDy=0;" parent="1" source="5" target="3" edge="1">
                    <mxGeometry width="50" height="50" relative="1" as="geometry">
                        <mxPoint x="378" y="606" as="sourcePoint"/>
                        <mxPoint x="428" y="556" as="targetPoint"/>
                    </mxGeometry>
                </mxCell>
                <mxCell id="9" value="" style="endArrow=classic;html=1;fontSize=11;fontColor=#9933FF;exitX=1;exitY=0.75;exitDx=0;exitDy=0;entryX=0;entryY=0.5;entryDx=0;entryDy=0;" parent="1" source="5" target="4" edge="1">
                    <mxGeometry width="50" height="50" relative="1" as="geometry">
                        <mxPoint x="248" y="621" as="sourcePoint"/>
                        <mxPoint x="298" y="571" as="targetPoint"/>
                        <Array as="points">
                            <mxPoint x="358" y="516"/>
                            <mxPoint x="360" y="620"/>
                        </Array>
                    </mxGeometry>
                </mxCell>
                <mxCell id="10" value="" style="endArrow=classic;html=1;fontSize=11;fontColor=#9933FF;exitX=1;exitY=0.5;exitDx=0;exitDy=0;entryX=0;entryY=0.25;entryDx=0;entryDy=0;" parent="1" source="2" target="6" edge="1">
                    <mxGeometry width="50" height="50" relative="1" as="geometry">
                        <mxPoint x="493" y="406" as="sourcePoint"/>
                        <mxPoint x="543" y="356" as="targetPoint"/>
                        <Array as="points">
                            <mxPoint x="490" y="380"/>
                            <mxPoint x="488" y="476"/>
                        </Array>
                    </mxGeometry>
                </mxCell>
                <mxCell id="15" value="" style="endArrow=classic;html=1;fontSize=11;fontColor=#9933FF;entryX=0;entryY=0.5;entryDx=0;entryDy=0;exitX=1;exitY=0.5;exitDx=0;exitDy=0;" parent="1" source="3" target="6" edge="1">
                    <mxGeometry width="50" height="50" relative="1" as="geometry">
                        <mxPoint x="478" y="495.5" as="sourcePoint"/>
                        <mxPoint x="518" y="495.5" as="targetPoint"/>
                    </mxGeometry>
                </mxCell>
                <mxCell id="16" value="" style="endArrow=classic;html=1;fontSize=11;fontColor=#9933FF;exitX=1;exitY=0.5;exitDx=0;exitDy=0;entryX=0;entryY=0.75;entryDx=0;entryDy=0;" parent="1" source="4" target="6" edge="1">
                    <mxGeometry width="50" height="50" relative="1" as="geometry">
                        <mxPoint x="498" y="616" as="sourcePoint"/>
                        <mxPoint x="488" y="516" as="targetPoint"/>
                        <Array as="points">
                            <mxPoint x="490" y="620"/>
                            <mxPoint x="488" y="516"/>
                        </Array>
                    </mxGeometry>
                </mxCell>
                <mxCell id="21" value="" style="endArrow=classic;html=1;entryX=0.5;entryY=0;entryDx=0;entryDy=0;exitX=0.5;exitY=1;exitDx=0;exitDy=0;" edge="1" parent="1" source="3" target="4">
                    <mxGeometry width="50" height="50" relative="1" as="geometry">
                        <mxPoint x="424" y="537" as="sourcePoint"/>
                        <mxPoint x="430" y="580" as="targetPoint"/>
                        <Array as="points"/>
                    </mxGeometry>
                </mxCell>
                <mxCell id="24" value="" style="endArrow=classic;html=1;" edge="1" parent="1">
                    <mxGeometry width="50" height="50" relative="1" as="geometry">
                        <mxPoint x="430" y="420" as="sourcePoint"/>
                        <mxPoint x="430" y="457" as="targetPoint"/>
                        <Array as="points"/>
                    </mxGeometry>
                </mxCell>
            </root>
        </mxGraphModel>
    </diagram>
</mxfile>